<svg width="320" height="160" viewBox="0 0 320 160" fill="none" xmlns="http://www.w3.org/2000/svg">
<path d="M80 40C57.8889 40 40 57.8889 40 80V120H80C102.111 120 120 102.111 120 80C120 57.8889 102.111 40 80 40Z" fill="#FFC04A"/>
<path d="M96.6667 68.8889C100.349 68.8889 103.333 65.9041 103.333 62.2222C103.333 58.5403 100.349 55.5555 96.6667 55.5555C92.9848 55.5555 90 58.5403 90 62.2222C90 65.9041 92.9848 68.8889 96.6667 68.8889Z" fill="#FFE3AC"/>
<path d="M160 40C137.889 40 120 57.8889 120 80V120H160C182.111 120 200 102.111 200 80C200 57.8889 182.111 40 160 40Z" fill="#63C74C"/>
<path d="M176.667 68.8889C180.349 68.8889 183.333 65.9041 183.333 62.2222C183.333 58.5403 180.349 55.5555 176.667 55.5555C172.985 55.5555 170 58.5403 170 62.2222C170 65.9041 172.985 68.8889 176.667 68.8889Z" fill="#C9ECC1"/>
<path d="M240 120C262.111 120 280 102.111 280 80L280 40L240 40C217.889 40 200 57.8889 200 80C200 102.111 217.889 120 240 120Z" fill="#30B66F"/>
</svg>
